<svg width="20" height="20" viewBox="0 0 20 20" fill="none" xmlns="http://www.w3.org/2000/svg">
<path d="M1.49304 8.36803V8.37823C1.49303 8.93565 1.49301 9.73658 1.84565 10.7287C2.19943 11.724 2.88916 12.8643 4.19644 14.1715C6.21413 16.1893 8.42338 17.8016 9.25984 18.3885C9.70582 18.7014 10.2952 18.7014 10.7412 18.3884C11.5774 17.8014 13.786 16.1892 15.8035 14.1715C17.1108 12.8643 17.8005 11.724 18.1543 10.7287C18.507 9.7366 18.507 8.93565 18.5069 8.37823V8.36803C18.5069 5.81626 16.761 3.61108 14.0624 3.61108C12.8015 3.61108 11.8259 4.20268 11.1025 4.94971C10.6556 5.41122 10.2928 5.94342 9.99999 6.46145C9.70715 5.94342 9.34433 5.41122 8.89745 4.94971C8.17412 4.20268 7.19844 3.61108 5.93749 3.61108C3.23899 3.61108 1.49304 5.81626 1.49304 8.36803Z" stroke="#424242" stroke-width="1.38889"/>
</svg>
