<svg width="19" height="19" viewBox="0 0 19 19" fill="none" xmlns="http://www.w3.org/2000/svg">
<path d="M15.8297 4.59082L6.87039 9.61104" stroke="#424242" stroke-width="1.25" stroke-linejoin="round"/>
<path d="M8.01128 14.939C8.22463 15.8275 8.33131 16.2718 8.55426 16.432C8.74764 16.571 8.99617 16.6081 9.22173 16.5318C9.48179 16.4438 9.71373 16.0501 10.1776 15.2628L15.7644 5.7809C16.1083 5.19727 16.2803 4.90546 16.2565 4.66566C16.2359 4.45653 16.1271 4.26612 15.9574 4.14215C15.7628 4 15.4241 4 14.7467 4H3.93404C3.03451 4 2.58474 4 2.37744 4.17754C2.19758 4.33158 2.10253 4.56254 2.12186 4.79856C2.14415 5.07059 2.46363 5.38716 3.10259 6.02032L6.33593 9.2243C6.48394 9.37097 6.55795 9.44431 6.61784 9.52755C6.671 9.60144 6.7158 9.68101 6.75142 9.76479C6.79153 9.85916 6.81586 9.96047 6.86451 10.1631L8.01128 14.939Z" stroke="#424242" stroke-width="1.25" stroke-linejoin="round"/>
</svg>
