<svg width="24" height="24" viewBox="0 0 24 24" fill="none" xmlns="http://www.w3.org/2000/svg">
<path fill-rule="evenodd" clip-rule="evenodd" d="M3.23054 10.6152C3.23054 6.53675 6.53675 3.23054 10.6152 3.23054C14.6936 3.23054 17.9998 6.53675 17.9998 10.6152C17.9998 14.6936 14.6936 17.9998 10.6152 17.9998C6.53675 17.9998 3.23054 14.6936 3.23054 10.6152ZM10.6152 0.922852C5.26225 0.922852 0.922852 5.26225 0.922852 10.6152C0.922852 15.9681 5.26225 20.3075 10.6152 20.3075C12.8758 20.3075 14.9557 19.5335 16.6044 18.2361L20.6454 22.2772C21.0961 22.7278 21.8266 22.7278 22.2772 22.2772C22.7278 21.8266 22.7278 21.0961 22.2772 20.6454L18.2361 16.6044C19.5335 14.9557 20.3075 12.8758 20.3075 10.6152C20.3075 5.26225 15.9681 0.922852 10.6152 0.922852Z" fill="#B8B8B8"/>
</svg>
