<svg width="20" height="21" viewBox="0 0 20 21" fill="none" xmlns="http://www.w3.org/2000/svg">
<path d="M7.12506 1.37257C7.3721 1.0792 7.81019 1.04165 8.10356 1.2887L11.0723 3.7887C11.2247 3.91699 11.3145 4.1045 11.3192 4.30361C11.3239 4.50271 11.2429 4.69423 11.0967 4.82952L8.12797 7.57746C7.8465 7.838 7.40714 7.82103 7.14661 7.53956C6.88608 7.2581 6.90305 6.81873 7.18451 6.5582L8.85244 5.01433H5.78124C4.0937 5.01433 2.72568 6.38235 2.72568 8.06989V10.5699V13.0699C2.72568 14.7575 4.0937 16.1255 5.78124 16.1255C6.16477 16.1255 6.47568 16.4363 6.47568 16.8199C6.47568 17.2035 6.16477 17.5143 5.78124 17.5143C3.32665 17.5143 1.33679 15.5245 1.33679 13.0699V10.5699V8.06989C1.33679 5.61529 3.32665 3.62544 5.78124 3.62544H8.72224L7.20893 2.35107C6.91556 2.10403 6.878 1.66594 7.12506 1.37257Z" fill="#424242"/>
<path d="M12.8749 19.7671C12.6279 20.0606 12.1898 20.0981 11.8964 19.851L8.92768 17.351C8.77535 17.2228 8.68541 17.0352 8.68075 16.8361C8.67608 16.637 8.75712 16.4456 8.90327 16.3103L11.872 13.5623C12.1534 13.3018 12.5929 13.3187 12.8533 13.6002C13.1139 13.8817 13.0969 14.321 12.8154 14.5816L11.1476 16.1255H14.2188C15.9063 16.1255 17.2743 14.7574 17.2743 13.0699V10.5699V8.06987C17.2743 6.38234 15.9063 5.01432 14.2188 5.01432C13.8352 5.01432 13.5243 4.70341 13.5243 4.31987C13.5243 3.93635 13.8352 3.62543 14.2188 3.62543C16.6733 3.62543 18.6632 5.61528 18.6632 8.06987V10.5699V13.0699C18.6632 15.5245 16.6733 17.5144 14.2188 17.5144H11.2778L12.7911 18.7887C13.0844 19.0357 13.122 19.4738 12.8749 19.7671Z" fill="#424242"/>
</svg>
