<svg width="20" height="18" viewBox="0 0 20 18" fill="none" xmlns="http://www.w3.org/2000/svg">
<path d="M1.49304 6.36806V6.37826C1.49303 6.93568 1.49301 7.73662 1.84565 8.72873C2.19943 9.724 2.88916 10.8643 4.19644 12.1716C6.21413 14.1893 8.42338 15.8017 9.25984 16.3886C9.70582 16.7014 10.2952 16.7014 10.7412 16.3884C11.5774 15.8014 13.786 14.1892 15.8035 12.1716C17.1108 10.8643 17.8005 9.724 18.1543 8.72873C18.507 7.73663 18.507 6.93568 18.5069 6.37826V6.36806C18.5069 3.81629 16.761 1.61111 14.0624 1.61111C12.8015 1.61111 11.8259 2.20271 11.1025 2.94974C10.6556 3.41125 10.2928 3.94345 9.99999 4.46148C9.70715 3.94345 9.34433 3.41125 8.89745 2.94974C8.17412 2.20271 7.19844 1.61111 5.93749 1.61111C3.23899 1.61111 1.49304 3.81629 1.49304 6.36806Z" fill="white" stroke="white" stroke-width="1.38889"/>
</svg>
