<svg width="21" height="18" viewBox="0 0 21 18" fill="none" xmlns="http://www.w3.org/2000/svg">
<path d="M1.5677 5.78648V5.79719C1.56769 6.38248 1.56767 7.22346 1.93795 8.26518C2.30941 9.31022 3.03363 10.5076 4.40627 11.8802C6.52485 13.9988 8.84455 15.6918 9.72284 16.308C10.1911 16.6365 10.81 16.6365 11.2782 16.3079C12.1563 15.6915 14.4753 13.9987 16.5937 11.8802C17.9663 10.5076 18.6906 9.31022 19.062 8.26518C19.4323 7.22347 19.4323 6.38248 19.4322 5.79719V5.78648C19.4322 3.10712 17.599 0.791687 14.7656 0.791687C13.4416 0.791687 12.4172 1.41287 11.6577 2.19724C11.1884 2.68183 10.8075 3.24064 10.5 3.78457C10.1925 3.24064 9.81156 2.68183 9.34234 2.19724C8.58284 1.41287 7.55837 0.791687 6.23437 0.791687C3.40095 0.791687 1.5677 3.10712 1.5677 5.78648Z" fill="#FF0034" stroke="#FF0034" stroke-width="1.38889"/>
</svg>
